<mxfile host="app.diagrams.net" modified="2023-11-21T12:24:42.481Z" agent="Mozilla/5.0 (Windows NT 10.0; Win64; x64) AppleWebKit/537.36 (KHTML, like Gecko) Chrome/119.0.0.0 Safari/537.36" etag="dhhOd-nWtVAeFHIyF1rF" version="22.1.3" type="device">
  <diagram name="Страница — 1" id="RgG6_wkWZKtnq-_wdZmq">
    <mxGraphModel dx="619" dy="352" grid="1" gridSize="10" guides="1" tooltips="1" connect="1" arrows="1" fold="1" page="1" pageScale="1" pageWidth="1169" pageHeight="827" math="0" shadow="0">
      <root>
        <mxCell id="0" />
        <mxCell id="1" parent="0" />
        <mxCell id="bl0NcpJw7GE9bJNxIOfp-2" value="&lt;font style=&quot;font-size: 17px;&quot;&gt;Закупівля товару&lt;/font&gt;" style="rounded=0;whiteSpace=wrap;html=1;" vertex="1" parent="1">
          <mxGeometry x="130" y="107" width="180" height="90" as="geometry" />
        </mxCell>
        <mxCell id="bl0NcpJw7GE9bJNxIOfp-4" value="" style="endArrow=classic;html=1;rounded=0;entryX=0.75;entryY=0;entryDx=0;entryDy=0;" edge="1" parent="1" target="bl0NcpJw7GE9bJNxIOfp-2">
          <mxGeometry width="50" height="50" relative="1" as="geometry">
            <mxPoint x="265" y="7" as="sourcePoint" />
            <mxPoint x="260" y="97" as="targetPoint" />
          </mxGeometry>
        </mxCell>
        <mxCell id="bl0NcpJw7GE9bJNxIOfp-6" value="Метод закупівлі товарів" style="text;html=1;strokeColor=none;fillColor=none;align=left;verticalAlign=middle;whiteSpace=wrap;rounded=0;labelPosition=center;verticalLabelPosition=middle;" vertex="1" parent="1">
          <mxGeometry x="274" y="36" width="120" height="30" as="geometry" />
        </mxCell>
        <mxCell id="bl0NcpJw7GE9bJNxIOfp-7" value="" style="endArrow=classic;html=1;rounded=0;entryX=0.75;entryY=0;entryDx=0;entryDy=0;" edge="1" parent="1">
          <mxGeometry width="50" height="50" relative="1" as="geometry">
            <mxPoint x="170" y="7" as="sourcePoint" />
            <mxPoint x="170" y="107" as="targetPoint" />
          </mxGeometry>
        </mxCell>
        <mxCell id="bl0NcpJw7GE9bJNxIOfp-8" value="Законодавчі акти" style="text;html=1;strokeColor=none;fillColor=none;align=right;verticalAlign=middle;whiteSpace=wrap;rounded=0;labelPosition=center;verticalLabelPosition=middle;" vertex="1" parent="1">
          <mxGeometry x="40" y="37" width="120" height="30" as="geometry" />
        </mxCell>
        <mxCell id="bl0NcpJw7GE9bJNxIOfp-9" value="" style="endArrow=classic;html=1;rounded=0;entryX=0;entryY=0.5;entryDx=0;entryDy=0;" edge="1" parent="1" target="bl0NcpJw7GE9bJNxIOfp-2">
          <mxGeometry width="50" height="50" relative="1" as="geometry">
            <mxPoint x="20" y="152" as="sourcePoint" />
            <mxPoint x="99.16999999999996" y="151.57999999999998" as="targetPoint" />
          </mxGeometry>
        </mxCell>
        <mxCell id="bl0NcpJw7GE9bJNxIOfp-10" value="Дані постачальника" style="text;whiteSpace=wrap;" vertex="1" parent="1">
          <mxGeometry x="31" y="112" width="90" height="30" as="geometry" />
        </mxCell>
        <mxCell id="bl0NcpJw7GE9bJNxIOfp-11" value="" style="endArrow=classic;html=1;rounded=0;entryX=0;entryY=0.5;entryDx=0;entryDy=0;" edge="1" parent="1">
          <mxGeometry width="50" height="50" relative="1" as="geometry">
            <mxPoint x="310" y="152" as="sourcePoint" />
            <mxPoint x="420" y="152" as="targetPoint" />
          </mxGeometry>
        </mxCell>
        <mxCell id="bl0NcpJw7GE9bJNxIOfp-12" value="Поставлений товар" style="text;whiteSpace=wrap;" vertex="1" parent="1">
          <mxGeometry x="318" y="112" width="110" height="30" as="geometry" />
        </mxCell>
        <mxCell id="bl0NcpJw7GE9bJNxIOfp-13" value="" style="endArrow=classic;html=1;rounded=0;entryX=0.75;entryY=0;entryDx=0;entryDy=0;" edge="1" parent="1">
          <mxGeometry width="50" height="50" relative="1" as="geometry">
            <mxPoint x="219.57999999999998" y="297" as="sourcePoint" />
            <mxPoint x="219.57999999999998" y="197" as="targetPoint" />
          </mxGeometry>
        </mxCell>
        <mxCell id="bl0NcpJw7GE9bJNxIOfp-14" value="Співробітники" style="text;whiteSpace=wrap;fontSize=11;" vertex="1" parent="1">
          <mxGeometry x="398" y="770" width="90" height="20" as="geometry" />
        </mxCell>
        <mxCell id="bl0NcpJw7GE9bJNxIOfp-15" value="0" style="text;html=1;strokeColor=none;fillColor=none;align=center;verticalAlign=middle;whiteSpace=wrap;rounded=0;" vertex="1" parent="1">
          <mxGeometry x="280" y="177" width="30" height="20" as="geometry" />
        </mxCell>
        <mxCell id="bl0NcpJw7GE9bJNxIOfp-16" value="А0" style="text;html=1;strokeColor=none;fillColor=none;align=center;verticalAlign=middle;whiteSpace=wrap;rounded=0;" vertex="1" parent="1">
          <mxGeometry x="280" y="207" width="30" height="20" as="geometry" />
        </mxCell>
        <mxCell id="bl0NcpJw7GE9bJNxIOfp-17" value="Дані постачальника" style="text;whiteSpace=wrap;fontSize=11;" vertex="1" parent="1">
          <mxGeometry x="10" y="560" width="72" height="30" as="geometry" />
        </mxCell>
        <mxCell id="bl0NcpJw7GE9bJNxIOfp-18" value="" style="endArrow=classic;html=1;rounded=0;entryX=0;entryY=0.5;entryDx=0;entryDy=0;" edge="1" parent="1">
          <mxGeometry width="50" height="50" relative="1" as="geometry">
            <mxPoint x="10" y="600" as="sourcePoint" />
            <mxPoint x="101" y="600" as="targetPoint" />
          </mxGeometry>
        </mxCell>
        <mxCell id="bl0NcpJw7GE9bJNxIOfp-23" value="" style="edgeStyle=orthogonalEdgeStyle;rounded=0;orthogonalLoop=1;jettySize=auto;html=1;" edge="1" parent="1" source="bl0NcpJw7GE9bJNxIOfp-19" target="bl0NcpJw7GE9bJNxIOfp-22">
          <mxGeometry relative="1" as="geometry" />
        </mxCell>
        <mxCell id="bl0NcpJw7GE9bJNxIOfp-19" value="&lt;font style=&quot;font-size: 12px;&quot;&gt;ПІБ постачальника&lt;/font&gt;" style="rounded=0;whiteSpace=wrap;html=1;" vertex="1" parent="1">
          <mxGeometry x="100" y="573" width="110" height="57" as="geometry" />
        </mxCell>
        <mxCell id="bl0NcpJw7GE9bJNxIOfp-25" value="" style="group" vertex="1" connectable="0" parent="1">
          <mxGeometry x="254" y="600" width="110" height="57" as="geometry" />
        </mxCell>
        <mxCell id="bl0NcpJw7GE9bJNxIOfp-22" value="&lt;font style=&quot;font-size: 12px;&quot;&gt;Контактний телефон&lt;/font&gt;" style="rounded=0;whiteSpace=wrap;html=1;" vertex="1" parent="bl0NcpJw7GE9bJNxIOfp-25">
          <mxGeometry width="110" height="57" as="geometry" />
        </mxCell>
        <mxCell id="bl0NcpJw7GE9bJNxIOfp-33" value="" style="group" vertex="1" connectable="0" parent="1">
          <mxGeometry x="410" y="630" width="110" height="57" as="geometry" />
        </mxCell>
        <mxCell id="bl0NcpJw7GE9bJNxIOfp-34" value="Ліцензія на товар&amp;nbsp;" style="rounded=0;whiteSpace=wrap;html=1;" vertex="1" parent="bl0NcpJw7GE9bJNxIOfp-33">
          <mxGeometry width="110" height="57" as="geometry" />
        </mxCell>
        <mxCell id="bl0NcpJw7GE9bJNxIOfp-36" value="" style="edgeStyle=orthogonalEdgeStyle;rounded=0;orthogonalLoop=1;jettySize=auto;html=1;" edge="1" parent="1" source="bl0NcpJw7GE9bJNxIOfp-22" target="bl0NcpJw7GE9bJNxIOfp-34">
          <mxGeometry relative="1" as="geometry" />
        </mxCell>
        <mxCell id="bl0NcpJw7GE9bJNxIOfp-37" value="" style="group" vertex="1" connectable="0" parent="1">
          <mxGeometry x="570" y="660" width="110" height="57" as="geometry" />
        </mxCell>
        <mxCell id="bl0NcpJw7GE9bJNxIOfp-38" value="&lt;font style=&quot;font-size: 12px;&quot;&gt;Паспортні дані&lt;/font&gt;" style="rounded=0;whiteSpace=wrap;html=1;" vertex="1" parent="bl0NcpJw7GE9bJNxIOfp-37">
          <mxGeometry width="110" height="57" as="geometry" />
        </mxCell>
        <mxCell id="bl0NcpJw7GE9bJNxIOfp-40" value="" style="edgeStyle=orthogonalEdgeStyle;rounded=0;orthogonalLoop=1;jettySize=auto;html=1;" edge="1" parent="1" source="bl0NcpJw7GE9bJNxIOfp-34" target="bl0NcpJw7GE9bJNxIOfp-38">
          <mxGeometry relative="1" as="geometry" />
        </mxCell>
        <mxCell id="bl0NcpJw7GE9bJNxIOfp-41" value="А1.1" style="text;html=1;strokeColor=none;fillColor=none;align=center;verticalAlign=middle;whiteSpace=wrap;rounded=0;" vertex="1" parent="1">
          <mxGeometry x="180" y="632" width="30" height="20" as="geometry" />
        </mxCell>
        <mxCell id="bl0NcpJw7GE9bJNxIOfp-42" value="А1.2" style="text;html=1;strokeColor=none;fillColor=none;align=center;verticalAlign=middle;whiteSpace=wrap;rounded=0;" vertex="1" parent="1">
          <mxGeometry x="338" y="657" width="26" height="20" as="geometry" />
        </mxCell>
        <mxCell id="bl0NcpJw7GE9bJNxIOfp-43" value="А1.3" style="text;html=1;strokeColor=none;fillColor=none;align=center;verticalAlign=middle;whiteSpace=wrap;rounded=0;" vertex="1" parent="1">
          <mxGeometry x="490" y="687" width="30" height="20" as="geometry" />
        </mxCell>
        <mxCell id="bl0NcpJw7GE9bJNxIOfp-44" value="А1.4" style="text;html=1;strokeColor=none;fillColor=none;align=center;verticalAlign=middle;whiteSpace=wrap;rounded=0;" vertex="1" parent="1">
          <mxGeometry x="650" y="717" width="30" height="20" as="geometry" />
        </mxCell>
        <mxCell id="bl0NcpJw7GE9bJNxIOfp-45" value="" style="endArrow=classic;html=1;rounded=0;" edge="1" parent="1">
          <mxGeometry width="50" height="50" relative="1" as="geometry">
            <mxPoint x="680" y="692" as="sourcePoint" />
            <mxPoint x="760" y="692" as="targetPoint" />
          </mxGeometry>
        </mxCell>
        <mxCell id="bl0NcpJw7GE9bJNxIOfp-46" value="Уточнення даних товару" style="text;whiteSpace=wrap;fontSize=11;" vertex="1" parent="1">
          <mxGeometry x="688" y="652" width="92" height="30" as="geometry" />
        </mxCell>
        <mxCell id="bl0NcpJw7GE9bJNxIOfp-52" value="" style="endArrow=none;html=1;rounded=0;" edge="1" parent="1">
          <mxGeometry width="50" height="50" relative="1" as="geometry">
            <mxPoint x="390" y="810" as="sourcePoint" />
            <mxPoint x="390" y="750" as="targetPoint" />
          </mxGeometry>
        </mxCell>
        <mxCell id="bl0NcpJw7GE9bJNxIOfp-53" value="" style="endArrow=classic;html=1;rounded=0;entryX=0.5;entryY=1;entryDx=0;entryDy=0;" edge="1" parent="1" target="bl0NcpJw7GE9bJNxIOfp-19">
          <mxGeometry width="50" height="50" relative="1" as="geometry">
            <mxPoint x="390" y="750" as="sourcePoint" />
            <mxPoint x="450" y="710" as="targetPoint" />
            <Array as="points">
              <mxPoint x="155" y="750" />
            </Array>
          </mxGeometry>
        </mxCell>
        <mxCell id="bl0NcpJw7GE9bJNxIOfp-54" value="" style="endArrow=classic;html=1;rounded=0;entryX=0.5;entryY=1;entryDx=0;entryDy=0;" edge="1" parent="1" target="bl0NcpJw7GE9bJNxIOfp-22">
          <mxGeometry width="50" height="50" relative="1" as="geometry">
            <mxPoint x="309" y="750" as="sourcePoint" />
            <mxPoint x="304" y="690" as="targetPoint" />
          </mxGeometry>
        </mxCell>
        <mxCell id="bl0NcpJw7GE9bJNxIOfp-55" value="" style="endArrow=classic;html=1;rounded=0;entryX=0.5;entryY=1;entryDx=0;entryDy=0;" edge="1" parent="1" target="bl0NcpJw7GE9bJNxIOfp-38">
          <mxGeometry width="50" height="50" relative="1" as="geometry">
            <mxPoint x="390" y="750" as="sourcePoint" />
            <mxPoint x="450" y="710" as="targetPoint" />
            <Array as="points">
              <mxPoint x="625" y="750" />
            </Array>
          </mxGeometry>
        </mxCell>
        <mxCell id="bl0NcpJw7GE9bJNxIOfp-56" value="" style="endArrow=classic;html=1;rounded=0;entryX=0.5;entryY=1;entryDx=0;entryDy=0;" edge="1" parent="1" target="bl0NcpJw7GE9bJNxIOfp-34">
          <mxGeometry width="50" height="50" relative="1" as="geometry">
            <mxPoint x="465" y="750" as="sourcePoint" />
            <mxPoint x="464.5" y="700" as="targetPoint" />
          </mxGeometry>
        </mxCell>
        <mxCell id="bl0NcpJw7GE9bJNxIOfp-59" value="Співробітники" style="text;whiteSpace=wrap;fontSize=11;" vertex="1" parent="1">
          <mxGeometry x="768" y="470" width="90" height="20" as="geometry" />
        </mxCell>
        <mxCell id="bl0NcpJw7GE9bJNxIOfp-60" value="Дані постачальника" style="text;whiteSpace=wrap;fontSize=11;" vertex="1" parent="1">
          <mxGeometry x="380" y="260" width="72" height="30" as="geometry" />
        </mxCell>
        <mxCell id="bl0NcpJw7GE9bJNxIOfp-61" value="" style="endArrow=classic;html=1;rounded=0;entryX=0;entryY=0.5;entryDx=0;entryDy=0;" edge="1" parent="1">
          <mxGeometry width="50" height="50" relative="1" as="geometry">
            <mxPoint x="380" y="300" as="sourcePoint" />
            <mxPoint x="471" y="300" as="targetPoint" />
          </mxGeometry>
        </mxCell>
        <mxCell id="bl0NcpJw7GE9bJNxIOfp-62" value="" style="edgeStyle=orthogonalEdgeStyle;rounded=0;orthogonalLoop=1;jettySize=auto;html=1;" edge="1" parent="1" source="bl0NcpJw7GE9bJNxIOfp-63" target="bl0NcpJw7GE9bJNxIOfp-66">
          <mxGeometry relative="1" as="geometry" />
        </mxCell>
        <mxCell id="bl0NcpJw7GE9bJNxIOfp-63" value="&lt;font style=&quot;font-size: 12px;&quot;&gt;Уточнення контакних даних&lt;/font&gt;" style="rounded=0;whiteSpace=wrap;html=1;" vertex="1" parent="1">
          <mxGeometry x="470" y="273" width="110" height="57" as="geometry" />
        </mxCell>
        <mxCell id="bl0NcpJw7GE9bJNxIOfp-64" value="1" style="text;html=1;strokeColor=none;fillColor=none;align=center;verticalAlign=middle;whiteSpace=wrap;rounded=0;" vertex="1" parent="1">
          <mxGeometry x="563" y="312" width="20" height="20" as="geometry" />
        </mxCell>
        <mxCell id="bl0NcpJw7GE9bJNxIOfp-65" value="" style="group" vertex="1" connectable="0" parent="1">
          <mxGeometry x="624" y="300" width="110" height="57" as="geometry" />
        </mxCell>
        <mxCell id="bl0NcpJw7GE9bJNxIOfp-66" value="&lt;font style=&quot;font-size: 12px;&quot;&gt;Уточнення даних товару&lt;/font&gt;" style="rounded=0;whiteSpace=wrap;html=1;" vertex="1" parent="bl0NcpJw7GE9bJNxIOfp-65">
          <mxGeometry width="110" height="57" as="geometry" />
        </mxCell>
        <mxCell id="bl0NcpJw7GE9bJNxIOfp-67" value="2" style="text;html=1;strokeColor=none;fillColor=none;align=center;verticalAlign=middle;whiteSpace=wrap;rounded=0;" vertex="1" parent="bl0NcpJw7GE9bJNxIOfp-65">
          <mxGeometry x="90" y="37" width="20" height="20" as="geometry" />
        </mxCell>
        <mxCell id="bl0NcpJw7GE9bJNxIOfp-68" value="" style="group" vertex="1" connectable="0" parent="1">
          <mxGeometry x="780" y="330" width="110" height="57" as="geometry" />
        </mxCell>
        <mxCell id="bl0NcpJw7GE9bJNxIOfp-69" value="&lt;font style=&quot;font-size: 12px;&quot;&gt;Оплата товару&lt;/font&gt;" style="rounded=0;whiteSpace=wrap;html=1;" vertex="1" parent="bl0NcpJw7GE9bJNxIOfp-68">
          <mxGeometry width="110" height="57" as="geometry" />
        </mxCell>
        <mxCell id="bl0NcpJw7GE9bJNxIOfp-70" value="3" style="text;html=1;strokeColor=none;fillColor=none;align=center;verticalAlign=middle;whiteSpace=wrap;rounded=0;" vertex="1" parent="bl0NcpJw7GE9bJNxIOfp-68">
          <mxGeometry x="90" y="37" width="20" height="20" as="geometry" />
        </mxCell>
        <mxCell id="bl0NcpJw7GE9bJNxIOfp-71" value="" style="edgeStyle=orthogonalEdgeStyle;rounded=0;orthogonalLoop=1;jettySize=auto;html=1;" edge="1" parent="1" source="bl0NcpJw7GE9bJNxIOfp-66" target="bl0NcpJw7GE9bJNxIOfp-69">
          <mxGeometry relative="1" as="geometry" />
        </mxCell>
        <mxCell id="bl0NcpJw7GE9bJNxIOfp-72" value="" style="group" vertex="1" connectable="0" parent="1">
          <mxGeometry x="940" y="360" width="110" height="57" as="geometry" />
        </mxCell>
        <mxCell id="bl0NcpJw7GE9bJNxIOfp-73" value="&lt;font style=&quot;font-size: 12px;&quot;&gt;Перевірка товару на брак&lt;/font&gt;" style="rounded=0;whiteSpace=wrap;html=1;" vertex="1" parent="bl0NcpJw7GE9bJNxIOfp-72">
          <mxGeometry width="110" height="57" as="geometry" />
        </mxCell>
        <mxCell id="bl0NcpJw7GE9bJNxIOfp-74" value="4" style="text;html=1;strokeColor=none;fillColor=none;align=center;verticalAlign=middle;whiteSpace=wrap;rounded=0;" vertex="1" parent="bl0NcpJw7GE9bJNxIOfp-72">
          <mxGeometry x="90" y="37" width="20" height="20" as="geometry" />
        </mxCell>
        <mxCell id="bl0NcpJw7GE9bJNxIOfp-75" value="" style="edgeStyle=orthogonalEdgeStyle;rounded=0;orthogonalLoop=1;jettySize=auto;html=1;" edge="1" parent="1" source="bl0NcpJw7GE9bJNxIOfp-69" target="bl0NcpJw7GE9bJNxIOfp-73">
          <mxGeometry relative="1" as="geometry" />
        </mxCell>
        <mxCell id="bl0NcpJw7GE9bJNxIOfp-76" value="А1" style="text;html=1;strokeColor=none;fillColor=none;align=center;verticalAlign=middle;whiteSpace=wrap;rounded=0;" vertex="1" parent="1">
          <mxGeometry x="560" y="332" width="20" height="20" as="geometry" />
        </mxCell>
        <mxCell id="bl0NcpJw7GE9bJNxIOfp-77" value="А2" style="text;html=1;strokeColor=none;fillColor=none;align=center;verticalAlign=middle;whiteSpace=wrap;rounded=0;" vertex="1" parent="1">
          <mxGeometry x="714" y="360" width="20" height="20" as="geometry" />
        </mxCell>
        <mxCell id="bl0NcpJw7GE9bJNxIOfp-78" value="А3" style="text;html=1;strokeColor=none;fillColor=none;align=center;verticalAlign=middle;whiteSpace=wrap;rounded=0;" vertex="1" parent="1">
          <mxGeometry x="870" y="387" width="20" height="20" as="geometry" />
        </mxCell>
        <mxCell id="bl0NcpJw7GE9bJNxIOfp-79" value="А4" style="text;html=1;strokeColor=none;fillColor=none;align=center;verticalAlign=middle;whiteSpace=wrap;rounded=0;" vertex="1" parent="1">
          <mxGeometry x="1030" y="420" width="20" height="20" as="geometry" />
        </mxCell>
        <mxCell id="bl0NcpJw7GE9bJNxIOfp-80" value="" style="endArrow=classic;html=1;rounded=0;" edge="1" parent="1">
          <mxGeometry width="50" height="50" relative="1" as="geometry">
            <mxPoint x="1050" y="392" as="sourcePoint" />
            <mxPoint x="1130" y="392" as="targetPoint" />
          </mxGeometry>
        </mxCell>
        <mxCell id="bl0NcpJw7GE9bJNxIOfp-81" value="Поставлений товар" style="text;whiteSpace=wrap;fontSize=11;" vertex="1" parent="1">
          <mxGeometry x="1077" y="322" width="92" height="30" as="geometry" />
        </mxCell>
        <mxCell id="bl0NcpJw7GE9bJNxIOfp-82" value="&lt;font style=&quot;font-size: 11px;&quot;&gt;Законодавчі акти&lt;/font&gt;" style="text;html=1;strokeColor=none;fillColor=none;align=right;verticalAlign=middle;whiteSpace=wrap;rounded=0;labelPosition=center;verticalLabelPosition=middle;" vertex="1" parent="1">
          <mxGeometry x="583" y="250" width="70" height="30" as="geometry" />
        </mxCell>
        <mxCell id="bl0NcpJw7GE9bJNxIOfp-83" value="" style="endArrow=classic;html=1;rounded=0;entryX=0.75;entryY=0;entryDx=0;entryDy=0;" edge="1" parent="1">
          <mxGeometry width="50" height="50" relative="1" as="geometry">
            <mxPoint x="657" y="250" as="sourcePoint" />
            <mxPoint x="657.1700000000001" y="300" as="targetPoint" />
          </mxGeometry>
        </mxCell>
        <mxCell id="bl0NcpJw7GE9bJNxIOfp-84" value="" style="endArrow=classic;html=1;rounded=0;entryX=0.75;entryY=0;entryDx=0;entryDy=0;" edge="1" parent="1">
          <mxGeometry width="50" height="50" relative="1" as="geometry">
            <mxPoint x="714" y="250" as="sourcePoint" />
            <mxPoint x="714" y="300" as="targetPoint" />
          </mxGeometry>
        </mxCell>
        <mxCell id="bl0NcpJw7GE9bJNxIOfp-85" value="&lt;font style=&quot;font-size: 11px;&quot;&gt;Метод закупівлі товарів&lt;/font&gt;" style="text;html=1;strokeColor=none;fillColor=none;align=left;verticalAlign=middle;whiteSpace=wrap;rounded=0;labelPosition=center;verticalLabelPosition=middle;" vertex="1" parent="1">
          <mxGeometry x="720" y="250" width="90" height="30" as="geometry" />
        </mxCell>
        <mxCell id="bl0NcpJw7GE9bJNxIOfp-86" value="" style="endArrow=none;html=1;rounded=0;" edge="1" parent="1">
          <mxGeometry width="50" height="50" relative="1" as="geometry">
            <mxPoint x="760" y="510" as="sourcePoint" />
            <mxPoint x="760" y="450" as="targetPoint" />
          </mxGeometry>
        </mxCell>
        <mxCell id="bl0NcpJw7GE9bJNxIOfp-87" value="" style="endArrow=classic;html=1;rounded=0;entryX=0.5;entryY=1;entryDx=0;entryDy=0;" edge="1" parent="1" target="bl0NcpJw7GE9bJNxIOfp-63">
          <mxGeometry width="50" height="50" relative="1" as="geometry">
            <mxPoint x="760" y="450" as="sourcePoint" />
            <mxPoint x="820" y="410" as="targetPoint" />
            <Array as="points">
              <mxPoint x="525" y="450" />
            </Array>
          </mxGeometry>
        </mxCell>
        <mxCell id="bl0NcpJw7GE9bJNxIOfp-88" value="" style="endArrow=classic;html=1;rounded=0;entryX=0.5;entryY=1;entryDx=0;entryDy=0;" edge="1" parent="1" target="bl0NcpJw7GE9bJNxIOfp-66">
          <mxGeometry width="50" height="50" relative="1" as="geometry">
            <mxPoint x="679" y="450" as="sourcePoint" />
            <mxPoint x="674" y="390" as="targetPoint" />
          </mxGeometry>
        </mxCell>
        <mxCell id="bl0NcpJw7GE9bJNxIOfp-89" value="" style="endArrow=classic;html=1;rounded=0;entryX=0.5;entryY=1;entryDx=0;entryDy=0;" edge="1" parent="1" target="bl0NcpJw7GE9bJNxIOfp-73">
          <mxGeometry width="50" height="50" relative="1" as="geometry">
            <mxPoint x="760" y="450" as="sourcePoint" />
            <mxPoint x="820" y="410" as="targetPoint" />
            <Array as="points">
              <mxPoint x="995" y="450" />
            </Array>
          </mxGeometry>
        </mxCell>
        <mxCell id="bl0NcpJw7GE9bJNxIOfp-90" value="" style="endArrow=classic;html=1;rounded=0;entryX=0.5;entryY=1;entryDx=0;entryDy=0;" edge="1" parent="1" target="bl0NcpJw7GE9bJNxIOfp-69">
          <mxGeometry width="50" height="50" relative="1" as="geometry">
            <mxPoint x="835" y="450" as="sourcePoint" />
            <mxPoint x="834.5" y="400" as="targetPoint" />
          </mxGeometry>
        </mxCell>
        <mxCell id="bl0NcpJw7GE9bJNxIOfp-92" value="Співробітники" style="text;whiteSpace=wrap;fontSize=11;" vertex="1" parent="1">
          <mxGeometry x="419" y="1070" width="90" height="20" as="geometry" />
        </mxCell>
        <mxCell id="bl0NcpJw7GE9bJNxIOfp-93" value="Ліцензія на товар" style="text;whiteSpace=wrap;fontSize=11;" vertex="1" parent="1">
          <mxGeometry x="31" y="860" width="72" height="30" as="geometry" />
        </mxCell>
        <mxCell id="bl0NcpJw7GE9bJNxIOfp-94" value="" style="endArrow=classic;html=1;rounded=0;entryX=0;entryY=0.5;entryDx=0;entryDy=0;" edge="1" parent="1">
          <mxGeometry width="50" height="50" relative="1" as="geometry">
            <mxPoint x="31" y="900" as="sourcePoint" />
            <mxPoint x="122" y="900" as="targetPoint" />
          </mxGeometry>
        </mxCell>
        <mxCell id="bl0NcpJw7GE9bJNxIOfp-95" value="" style="edgeStyle=orthogonalEdgeStyle;rounded=0;orthogonalLoop=1;jettySize=auto;html=1;" edge="1" parent="1" source="bl0NcpJw7GE9bJNxIOfp-96" target="bl0NcpJw7GE9bJNxIOfp-98">
          <mxGeometry relative="1" as="geometry" />
        </mxCell>
        <mxCell id="bl0NcpJw7GE9bJNxIOfp-96" value="&lt;font style=&quot;font-size: 12px;&quot;&gt;Ксерокопія паспорту&lt;/font&gt;" style="rounded=0;whiteSpace=wrap;html=1;" vertex="1" parent="1">
          <mxGeometry x="121" y="873" width="110" height="57" as="geometry" />
        </mxCell>
        <mxCell id="bl0NcpJw7GE9bJNxIOfp-97" value="" style="group" vertex="1" connectable="0" parent="1">
          <mxGeometry x="275" y="900" width="110" height="57" as="geometry" />
        </mxCell>
        <mxCell id="bl0NcpJw7GE9bJNxIOfp-98" value="&lt;font style=&quot;font-size: 12px;&quot;&gt;Громадянство&lt;/font&gt;" style="rounded=0;whiteSpace=wrap;html=1;" vertex="1" parent="bl0NcpJw7GE9bJNxIOfp-97">
          <mxGeometry width="110" height="57" as="geometry" />
        </mxCell>
        <mxCell id="bl0NcpJw7GE9bJNxIOfp-99" value="" style="group" vertex="1" connectable="0" parent="1">
          <mxGeometry x="431" y="930" width="110" height="57" as="geometry" />
        </mxCell>
        <mxCell id="bl0NcpJw7GE9bJNxIOfp-100" value="Унікальний номер запису у реєстрі" style="rounded=0;whiteSpace=wrap;html=1;" vertex="1" parent="bl0NcpJw7GE9bJNxIOfp-99">
          <mxGeometry width="110" height="57" as="geometry" />
        </mxCell>
        <mxCell id="bl0NcpJw7GE9bJNxIOfp-101" value="" style="edgeStyle=orthogonalEdgeStyle;rounded=0;orthogonalLoop=1;jettySize=auto;html=1;" edge="1" parent="1" source="bl0NcpJw7GE9bJNxIOfp-98" target="bl0NcpJw7GE9bJNxIOfp-100">
          <mxGeometry relative="1" as="geometry" />
        </mxCell>
        <mxCell id="bl0NcpJw7GE9bJNxIOfp-102" value="" style="group" vertex="1" connectable="0" parent="1">
          <mxGeometry x="591" y="960" width="110" height="57" as="geometry" />
        </mxCell>
        <mxCell id="bl0NcpJw7GE9bJNxIOfp-103" value="&lt;font style=&quot;font-size: 12px;&quot;&gt;Ідентифікаційний номер платника податків&lt;/font&gt;" style="rounded=0;whiteSpace=wrap;html=1;" vertex="1" parent="bl0NcpJw7GE9bJNxIOfp-102">
          <mxGeometry width="110" height="57" as="geometry" />
        </mxCell>
        <mxCell id="bl0NcpJw7GE9bJNxIOfp-104" value="" style="edgeStyle=orthogonalEdgeStyle;rounded=0;orthogonalLoop=1;jettySize=auto;html=1;" edge="1" parent="1" source="bl0NcpJw7GE9bJNxIOfp-100" target="bl0NcpJw7GE9bJNxIOfp-103">
          <mxGeometry relative="1" as="geometry" />
        </mxCell>
        <mxCell id="bl0NcpJw7GE9bJNxIOfp-105" value="А1.4.1" style="text;html=1;strokeColor=none;fillColor=none;align=center;verticalAlign=middle;whiteSpace=wrap;rounded=0;" vertex="1" parent="1">
          <mxGeometry x="192" y="930" width="39" height="20" as="geometry" />
        </mxCell>
        <mxCell id="bl0NcpJw7GE9bJNxIOfp-109" value="" style="endArrow=classic;html=1;rounded=0;" edge="1" parent="1">
          <mxGeometry width="50" height="50" relative="1" as="geometry">
            <mxPoint x="701" y="992" as="sourcePoint" />
            <mxPoint x="781" y="992" as="targetPoint" />
          </mxGeometry>
        </mxCell>
        <mxCell id="bl0NcpJw7GE9bJNxIOfp-110" value="Уточнення даних товару" style="text;whiteSpace=wrap;fontSize=11;" vertex="1" parent="1">
          <mxGeometry x="709" y="952" width="81" height="30" as="geometry" />
        </mxCell>
        <mxCell id="bl0NcpJw7GE9bJNxIOfp-111" value="" style="endArrow=none;html=1;rounded=0;" edge="1" parent="1">
          <mxGeometry width="50" height="50" relative="1" as="geometry">
            <mxPoint x="411" y="1110" as="sourcePoint" />
            <mxPoint x="411" y="1050" as="targetPoint" />
          </mxGeometry>
        </mxCell>
        <mxCell id="bl0NcpJw7GE9bJNxIOfp-112" value="" style="endArrow=classic;html=1;rounded=0;entryX=0.5;entryY=1;entryDx=0;entryDy=0;" edge="1" parent="1" target="bl0NcpJw7GE9bJNxIOfp-96">
          <mxGeometry width="50" height="50" relative="1" as="geometry">
            <mxPoint x="411" y="1050" as="sourcePoint" />
            <mxPoint x="471" y="1010" as="targetPoint" />
            <Array as="points">
              <mxPoint x="176" y="1050" />
            </Array>
          </mxGeometry>
        </mxCell>
        <mxCell id="bl0NcpJw7GE9bJNxIOfp-113" value="" style="endArrow=classic;html=1;rounded=0;entryX=0.5;entryY=1;entryDx=0;entryDy=0;" edge="1" parent="1" target="bl0NcpJw7GE9bJNxIOfp-98">
          <mxGeometry width="50" height="50" relative="1" as="geometry">
            <mxPoint x="330" y="1050" as="sourcePoint" />
            <mxPoint x="325" y="990" as="targetPoint" />
          </mxGeometry>
        </mxCell>
        <mxCell id="bl0NcpJw7GE9bJNxIOfp-114" value="" style="endArrow=classic;html=1;rounded=0;entryX=0.5;entryY=1;entryDx=0;entryDy=0;" edge="1" parent="1" target="bl0NcpJw7GE9bJNxIOfp-103">
          <mxGeometry width="50" height="50" relative="1" as="geometry">
            <mxPoint x="411" y="1050" as="sourcePoint" />
            <mxPoint x="471" y="1010" as="targetPoint" />
            <Array as="points">
              <mxPoint x="646" y="1050" />
            </Array>
          </mxGeometry>
        </mxCell>
        <mxCell id="bl0NcpJw7GE9bJNxIOfp-115" value="" style="endArrow=classic;html=1;rounded=0;entryX=0.5;entryY=1;entryDx=0;entryDy=0;" edge="1" parent="1" target="bl0NcpJw7GE9bJNxIOfp-100">
          <mxGeometry width="50" height="50" relative="1" as="geometry">
            <mxPoint x="486" y="1050" as="sourcePoint" />
            <mxPoint x="485.5" y="1000" as="targetPoint" />
          </mxGeometry>
        </mxCell>
        <mxCell id="bl0NcpJw7GE9bJNxIOfp-116" value="А1.4.2" style="text;html=1;strokeColor=none;fillColor=none;align=center;verticalAlign=middle;whiteSpace=wrap;rounded=0;" vertex="1" parent="1">
          <mxGeometry x="346" y="957" width="39" height="20" as="geometry" />
        </mxCell>
        <mxCell id="bl0NcpJw7GE9bJNxIOfp-117" value="А1.4.3" style="text;html=1;strokeColor=none;fillColor=none;align=center;verticalAlign=middle;whiteSpace=wrap;rounded=0;" vertex="1" parent="1">
          <mxGeometry x="502" y="987" width="39" height="20" as="geometry" />
        </mxCell>
        <mxCell id="bl0NcpJw7GE9bJNxIOfp-118" value="А1.4.4" style="text;html=1;strokeColor=none;fillColor=none;align=center;verticalAlign=middle;whiteSpace=wrap;rounded=0;" vertex="1" parent="1">
          <mxGeometry x="662" y="1017" width="39" height="20" as="geometry" />
        </mxCell>
      </root>
    </mxGraphModel>
  </diagram>
</mxfile>
